<svg xmlns="http://www.w3.org/2000/svg" viewBox="0 0 64 64" role="img" aria-label="BloomVibe icon">
  <defs>
    <linearGradient id="bloom-gradient" x1="0%" y1="0%" x2="100%" y2="100%">
      <stop offset="0%" stop-color="#cb6f43" />
      <stop offset="100%" stop-color="#657b50" />
    </linearGradient>
  </defs>
  <rect width="64" height="64" rx="18" fill="#fff6ea" />
  <path
    d="M21 43c0-8.6 6.6-14.4 15-14.4 3.3 0 6.3.9 9 2.7-1.4-6.6-7.1-11.3-14.2-11.3-8.1 0-14.8 6.6-14.8 14.7 0 3.6 1.3 6.9 3.5 9.4H21Z"
    fill="url(#bloom-gradient)"
    opacity=".94"
  />
  <path
    d="M27 46c5.3 0 9.6-4.3 9.6-9.6S32.3 26.8 27 26.8s-9.6 4.3-9.6 9.6S21.7 46 27 46Z"
    fill="#f4c97b"
    opacity=".92"
  />
  <path
    d="M36.7 18.4c7 0 12.7 5.7 12.7 12.8 0 7-5.7 12.7-12.7 12.7-1.2 0-2.5-.2-3.7-.6 4-1.7 6.8-5.8 6.8-10.5 0-4.7-2.8-8.8-6.8-10.5 1.2-.6 2.5-.9 3.7-.9Z"
    fill="#657b50"
    opacity=".88"
  />
</svg>
